<?xml version="1.0" standalone="no"?>
<!DOCTYPE svg PUBLIC "-//W3C//DTD SVG 20010904//EN"
 "http://www.w3.org/TR/2001/REC-SVG-20010904/DTD/svg10.dtd">
<svg version="1.0" xmlns="http://www.w3.org/2000/svg"
 width="541.000000pt" height="498.000000pt" viewBox="0 0 541.000000 498.000000"
 preserveAspectRatio="xMidYMid meet">

<g transform="translate(0.000000,498.000000) scale(0.100000,-0.100000)"
fill="#000000" stroke="none">
<path d="M1802 4241 c-23 -16 -39 -31 -35 -33 5 -3 2 -3 -5 -1 -12 3 -61 -23
-72 -38 -3 -4 -17 -10 -31 -14 -44 -11 -150 -80 -139 -91 6 -6 3 -22 -9 -45
-23 -43 -51 -149 -51 -194 0 -19 -5 -37 -11 -40 -6 -4 -8 -13 -5 -20 3 -8 12
-58 21 -112 9 -54 25 -132 36 -173 15 -58 22 -134 29 -330 5 -140 14 -302 20
-360 14 -145 22 -367 15 -390 -4 -11 -14 -20 -24 -20 -21 0 -154 68 -159 81
-2 5 -11 9 -20 9 -9 0 -80 36 -156 80 -76 44 -140 80 -142 80 -2 0 -24 14 -49
31 -25 17 -48 29 -50 27 -6 -6 182 -127 430 -278 66 -40 143 -88 171 -106 28
-19 53 -34 57 -34 3 0 7 296 10 658 3 558 6 673 21 762 30 189 108 426 172
526 19 30 31 54 27 54 -4 0 -27 -13 -51 -29z m-208 -145 c-3 -9 -10 -16 -15
-16 -6 0 -5 9 1 21 13 24 24 20 14 -5z m-39 -26 c3 -5 2 -10 -4 -10 -5 0 -13
5 -16 10 -3 6 -2 10 4 10 5 0 13 -4 16 -10z"/>
<path d="M1480 4060 c-9 -6 -10 -10 -3 -10 6 0 15 5 18 10 8 12 4 12 -15 0z"/>
<path d="M2635 3944 c-181 -24 -318 -97 -420 -223 -97 -120 -138 -246 -138
-421 0 -102 4 -125 32 -210 102 -304 391 -499 746 -503 143 -1 199 10 320 68
129 62 124 56 91 105 -15 23 -30 40 -34 38 -4 -2 -32 -15 -62 -30 -129 -65
-310 -85 -477 -53 -222 42 -404 204 -467 415 -24 79 -23 247 2 327 52 167 157
281 317 343 52 21 78 24 190 24 108 1 142 -3 202 -22 184 -57 316 -178 364
-333 24 -76 25 -200 3 -265 -54 -161 -195 -254 -271 -178 -19 19 -24 32 -19
52 3 15 23 110 45 212 22 102 42 197 46 211 6 23 3 27 -26 33 -65 13 -89 8
-107 -23 l-17 -30 -51 49 c-41 39 -61 50 -108 60 -141 29 -280 -52 -338 -199
-32 -81 -33 -255 -1 -323 38 -83 107 -131 204 -143 75 -9 131 8 184 56 23 21
45 39 48 39 2 0 8 -15 11 -33 12 -64 74 -97 182 -97 211 0 359 183 358 440 -1
169 -47 291 -152 402 -55 58 -82 77 -166 118 -56 27 -139 58 -186 69 -83 20
-245 33 -305 25z m216 -477 c19 -12 43 -40 53 -61 18 -36 18 -46 7 -114 -33
-195 -84 -262 -199 -262 -88 0 -132 57 -132 173 0 116 54 237 121 270 49 24
109 22 150 -6z"/>
<path d="M3848 3375 c-3 -33 -11 -113 -19 -178 -10 -97 -11 -171 -1 -395 7
-153 12 -332 12 -399 0 -68 3 -123 8 -123 4 1 48 53 97 117 106 138 269 344
363 462 37 46 91 113 120 150 28 36 66 83 83 104 61 75 19 34 -77 -75 -87 -99
-354 -372 -397 -405 -8 -6 -18 -9 -23 -5 -4 4 -4 2 -1 -4 4 -7 -10 -23 -33
-38 -39 -26 -40 -26 -59 -7 -10 10 -21 34 -25 52 -16 81 -33 387 -29 529 2 85
0 182 -4 215 l-9 60 -6 -60z"/>
<path d="M4849 3391 c-8 -10 -68 -86 -135 -168 -309 -380 -469 -580 -710 -887
-60 -77 -128 -163 -151 -193 -24 -29 -43 -55 -43 -57 0 -3 33 -24 73 -47 39
-23 101 -58 137 -79 160 -92 280 -160 335 -190 272 -149 287 -158 660 -355
138 -73 271 -145 298 -159 56 -32 57 -29 28 85 -10 41 -38 160 -60 264 -23
105 -57 258 -76 340 -19 83 -43 191 -54 240 -33 157 -231 1046 -252 1138 -12
48 -25 87 -29 87 -4 0 -14 -9 -21 -19z"/>
<path d="M7 3183 c-16 -16 -7 -99 93 -823 27 -195 59 -425 69 -510 11 -85 29
-216 40 -290 11 -74 34 -241 51 -370 17 -129 44 -327 60 -440 16 -113 32 -233
36 -268 4 -34 10 -61 14 -60 11 4 87 68 200 168 53 47 140 123 194 170 55 47
230 199 390 338 160 140 334 290 386 335 52 45 131 114 175 152 44 39 142 123
218 189 75 65 137 122 137 126 0 5 -43 35 -95 67 -161 98 -226 137 -340 208
-60 37 -153 93 -205 125 -52 31 -133 81 -180 110 -47 29 -123 76 -170 105 -77
47 -149 92 -477 304 -57 36 -155 100 -220 141 -64 41 -170 110 -236 153 -122
79 -129 82 -140 70z"/>
<path d="M920 2706 c0 -2 7 -7 16 -10 8 -3 12 -2 9 4 -6 10 -25 14 -25 6z"/>
<path d="M2800 2373 c-52 -47 -127 -113 -166 -147 -38 -34 -200 -175 -360
-314 -159 -140 -350 -306 -424 -371 -74 -65 -245 -214 -379 -332 -135 -118
-263 -230 -285 -249 -23 -19 -194 -170 -382 -335 -187 -165 -357 -314 -377
-332 -40 -35 -45 -58 -23 -102 19 -36 79 -89 112 -97 39 -10 116 0 459 60 674
117 853 148 1250 217 831 143 986 170 1265 218 157 27 445 77 640 111 195 34
472 82 615 106 358 60 533 92 580 107 49 15 75 60 75 129 0 55 -3 57 -160 140
-614 323 -879 467 -1310 711 -265 150 -328 186 -535 299 -158 87 -495 268
-498 268 -1 -1 -45 -39 -97 -87z"/>
</g>
</svg>
